<mxfile host="app.diagrams.net" agent="Mozilla/5.0 (Windows NT 10.0; Win64; x64) AppleWebKit/537.36 (KHTML, like Gecko) Chrome/134.0.0.0 Safari/537.36" version="24.8.9">
  <diagram name="Page-1" id="e56a1550-8fbb-45ad-956c-1786394a9013">
    <mxGraphModel dx="691" dy="483" grid="1" gridSize="10" guides="1" tooltips="1" connect="1" arrows="1" fold="1" page="1" pageScale="1" pageWidth="1100" pageHeight="850" background="none" math="0" shadow="0">
      <root>
        <mxCell id="0" />
        <mxCell id="1" parent="0" />
        <mxCell id="TlHTjuxf8ejG_CG2a8bt-5" value="Future maintenance alerts" style="whiteSpace=wrap;html=1;align=center;" vertex="1" parent="1">
          <mxGeometry x="80" y="120" width="120" height="40" as="geometry" />
        </mxCell>
        <mxCell id="TlHTjuxf8ejG_CG2a8bt-6" value="Clients" style="whiteSpace=wrap;html=1;align=center;" vertex="1" parent="1">
          <mxGeometry x="280" y="120" width="120" height="40" as="geometry" />
        </mxCell>
        <mxCell id="TlHTjuxf8ejG_CG2a8bt-7" value="Orders" style="whiteSpace=wrap;html=1;align=center;" vertex="1" parent="1">
          <mxGeometry x="280" y="240" width="120" height="40" as="geometry" />
        </mxCell>
        <mxCell id="TlHTjuxf8ejG_CG2a8bt-8" value="Work orders" style="whiteSpace=wrap;html=1;align=center;" vertex="1" parent="1">
          <mxGeometry x="280" y="360" width="120" height="40" as="geometry" />
        </mxCell>
        <mxCell id="TlHTjuxf8ejG_CG2a8bt-9" value="Order items (array)" style="whiteSpace=wrap;html=1;align=center;" vertex="1" parent="1">
          <mxGeometry x="500" y="240" width="120" height="40" as="geometry" />
        </mxCell>
        <mxCell id="TlHTjuxf8ejG_CG2a8bt-11" value="Items" style="whiteSpace=wrap;html=1;align=center;" vertex="1" parent="1">
          <mxGeometry x="700" y="240" width="120" height="40" as="geometry" />
        </mxCell>
        <mxCell id="TlHTjuxf8ejG_CG2a8bt-12" value="Workers" style="whiteSpace=wrap;html=1;align=center;" vertex="1" parent="1">
          <mxGeometry x="500" y="360" width="120" height="40" as="geometry" />
        </mxCell>
        <mxCell id="TlHTjuxf8ejG_CG2a8bt-17" value="" style="edgeStyle=entityRelationEdgeStyle;fontSize=12;html=1;endArrow=ERzeroToMany;startArrow=ERmandOne;rounded=0;entryX=1;entryY=0.5;entryDx=0;entryDy=0;exitX=0;exitY=0.5;exitDx=0;exitDy=0;" edge="1" parent="1" source="TlHTjuxf8ejG_CG2a8bt-6" target="TlHTjuxf8ejG_CG2a8bt-5">
          <mxGeometry width="100" height="100" relative="1" as="geometry">
            <mxPoint x="160" y="390" as="sourcePoint" />
            <mxPoint x="260" y="290" as="targetPoint" />
          </mxGeometry>
        </mxCell>
        <mxCell id="TlHTjuxf8ejG_CG2a8bt-24" value="for" style="edgeLabel;html=1;align=center;verticalAlign=middle;resizable=0;points=[];" vertex="1" connectable="0" parent="TlHTjuxf8ejG_CG2a8bt-17">
          <mxGeometry x="-0.1214" relative="1" as="geometry">
            <mxPoint x="-7" as="offset" />
          </mxGeometry>
        </mxCell>
        <mxCell id="TlHTjuxf8ejG_CG2a8bt-19" value="" style="fontSize=12;html=1;endArrow=ERzeroToMany;startArrow=ERmandOne;rounded=0;exitX=0.5;exitY=1;exitDx=0;exitDy=0;entryX=0.5;entryY=0;entryDx=0;entryDy=0;" edge="1" parent="1" source="TlHTjuxf8ejG_CG2a8bt-6" target="TlHTjuxf8ejG_CG2a8bt-7">
          <mxGeometry width="100" height="100" relative="1" as="geometry">
            <mxPoint x="180" y="400" as="sourcePoint" />
            <mxPoint x="280" y="300" as="targetPoint" />
          </mxGeometry>
        </mxCell>
        <mxCell id="TlHTjuxf8ejG_CG2a8bt-25" value="request" style="edgeLabel;html=1;align=center;verticalAlign=middle;resizable=0;points=[];" vertex="1" connectable="0" parent="TlHTjuxf8ejG_CG2a8bt-19">
          <mxGeometry x="-0.1293" y="-3" relative="1" as="geometry">
            <mxPoint x="3" y="5" as="offset" />
          </mxGeometry>
        </mxCell>
        <mxCell id="TlHTjuxf8ejG_CG2a8bt-20" value="" style="fontSize=12;html=1;endArrow=ERmandOne;startArrow=ERmandOne;rounded=0;entryX=0.5;entryY=1;entryDx=0;entryDy=0;exitX=0.5;exitY=0;exitDx=0;exitDy=0;" edge="1" parent="1" source="TlHTjuxf8ejG_CG2a8bt-8" target="TlHTjuxf8ejG_CG2a8bt-7">
          <mxGeometry width="100" height="100" relative="1" as="geometry">
            <mxPoint x="190" y="420" as="sourcePoint" />
            <mxPoint x="290" y="320" as="targetPoint" />
          </mxGeometry>
        </mxCell>
        <mxCell id="TlHTjuxf8ejG_CG2a8bt-28" value="generate" style="edgeLabel;html=1;align=center;verticalAlign=middle;resizable=0;points=[];" vertex="1" connectable="0" parent="TlHTjuxf8ejG_CG2a8bt-20">
          <mxGeometry x="0.015" relative="1" as="geometry">
            <mxPoint as="offset" />
          </mxGeometry>
        </mxCell>
        <mxCell id="TlHTjuxf8ejG_CG2a8bt-21" value="" style="edgeStyle=entityRelationEdgeStyle;fontSize=12;html=1;endArrow=ERoneToMany;startArrow=ERmandOne;rounded=0;entryX=0;entryY=0.5;entryDx=0;entryDy=0;exitX=1;exitY=0.5;exitDx=0;exitDy=0;" edge="1" parent="1" source="TlHTjuxf8ejG_CG2a8bt-7" target="TlHTjuxf8ejG_CG2a8bt-9">
          <mxGeometry width="100" height="100" relative="1" as="geometry">
            <mxPoint x="160" y="430" as="sourcePoint" />
            <mxPoint x="260" y="330" as="targetPoint" />
          </mxGeometry>
        </mxCell>
        <mxCell id="TlHTjuxf8ejG_CG2a8bt-26" value="include" style="edgeLabel;html=1;align=center;verticalAlign=middle;resizable=0;points=[];" vertex="1" connectable="0" parent="TlHTjuxf8ejG_CG2a8bt-21">
          <mxGeometry x="-0.2214" y="1" relative="1" as="geometry">
            <mxPoint x="13" y="1" as="offset" />
          </mxGeometry>
        </mxCell>
        <mxCell id="TlHTjuxf8ejG_CG2a8bt-22" value="" style="edgeStyle=entityRelationEdgeStyle;fontSize=12;html=1;endArrow=ERoneToMany;startArrow=ERzeroToMany;rounded=0;entryX=0;entryY=0.5;entryDx=0;entryDy=0;exitX=1;exitY=0.5;exitDx=0;exitDy=0;" edge="1" parent="1" source="TlHTjuxf8ejG_CG2a8bt-8" target="TlHTjuxf8ejG_CG2a8bt-12">
          <mxGeometry width="100" height="100" relative="1" as="geometry">
            <mxPoint x="180" y="410" as="sourcePoint" />
            <mxPoint x="280" y="310" as="targetPoint" />
          </mxGeometry>
        </mxCell>
        <mxCell id="TlHTjuxf8ejG_CG2a8bt-29" value="worked by" style="edgeLabel;html=1;align=center;verticalAlign=middle;resizable=0;points=[];" vertex="1" connectable="0" parent="TlHTjuxf8ejG_CG2a8bt-22">
          <mxGeometry x="-0.0814" relative="1" as="geometry">
            <mxPoint x="4" as="offset" />
          </mxGeometry>
        </mxCell>
        <mxCell id="TlHTjuxf8ejG_CG2a8bt-23" value="" style="edgeStyle=entityRelationEdgeStyle;fontSize=12;html=1;endArrow=ERoneToMany;startArrow=ERzeroToMany;rounded=0;entryX=0;entryY=0.5;entryDx=0;entryDy=0;exitX=1;exitY=0.5;exitDx=0;exitDy=0;" edge="1" parent="1" source="TlHTjuxf8ejG_CG2a8bt-9" target="TlHTjuxf8ejG_CG2a8bt-11">
          <mxGeometry width="100" height="100" relative="1" as="geometry">
            <mxPoint x="600" y="259.71000000000004" as="sourcePoint" />
            <mxPoint x="680" y="259.71000000000004" as="targetPoint" />
          </mxGeometry>
        </mxCell>
        <mxCell id="TlHTjuxf8ejG_CG2a8bt-27" value="from" style="edgeLabel;html=1;align=center;verticalAlign=middle;resizable=0;points=[];" vertex="1" connectable="0" parent="TlHTjuxf8ejG_CG2a8bt-23">
          <mxGeometry x="-0.0386" relative="1" as="geometry">
            <mxPoint as="offset" />
          </mxGeometry>
        </mxCell>
      </root>
    </mxGraphModel>
  </diagram>
</mxfile>
